{"title":"Rock Legends The Best from The Ed Sullivan Show (vol 2) 2Lions-","uid":5664340,"size":2524039813,"categoryP":"video","categoryS":"music_videos","magnet":"?xt=urn:btih:fd50d2a43811c7d622b5efbe0c34f501a013f9a1&amp;dn=Rock+Legends+The+Best+from+The+Ed+Sullivan+Show+%28vol+2%29+2Lions-&amp;tr=udp%3A%2F%2Ftracker.openbittorrent.com%3A80&amp;tr=udp%3A%2F%2Fopen.demonii.com%3A1337&amp;tr=udp%3A%2F%2Ftracker.coppersurfer.tk%3A6969&amp;tr=udp%3A%2F%2Fexodus.desync.com%3A6969","seeders":2,"leechers":1,"uploader":"Pioen","files":-1,"time":1278083962,"description":" Rock Legends The Best Of 50s 60s 70s from The Ed Sullivan Show vol.2       \n\n\nTracklist\n\n01. The Doors - Light My Fire (1967)\n02. Steppenwolf - Born To Be Wild / Magic Carpet Ride (1969)\n03. The Temptations - Psychedelic Shack (1970)\n04. Vanilla Fudge - You Keep Me Hanging On (1968)\n05. The Beatles - Help (1967)\n06. The Bee Gees - Words (1968)\n07. The Byrds - Mr. Tambourine Man (1965)\n08. Creedence Clearwater Revival - Good Golly Miss Molly (1969)\n09. The Temptations - My Girl / (I Know) I'm Losing You (1967)\n10. Young Rascals - Good Lovin' (1966)\n11. The Turtles - Happy Together (1967)\n12. Spanky &amp; Our Gang - Sunday Will Never Be The Same (1967)\n13. The 5th Dimension - Stoned Soul Picnic (1971)\n14. Young Rascals - Groovin' (1967)\n15. Oliver - Good Morning Starshine (1970)\n16. The Beach Boys - Good Vibrations (1968)\n\n\n\nDVD Features:\nMenu: Ja\nAvailable Audio Tracks : DD 2.0\nMain Language: Engels\nDisc Format: DVD 5\nCover : Nee\n\nSpotinformatie \nCategorie : Beeld \nFormaat : DVD5 \nBron : Retail\n \nOndertitels : Geen\n \nGenre : Muziek\n\n\nVideo\nID                               : 224 (0xE0)\nFormat                           : MPEG Video\nFormat version                   : Version 2\nFormat profile                   : Main@Main\nFormat settings, Matrix          : Default\nDuration                         : 21mn 20s\nBit rate mode                    : Variable\nBit rate                         : 6 188 Kbps\nNominal bit rate                 : 8 000 Kbps\nWidth                            : 720 pixels\nHeight                           : 576 pixels\nDisplay aspect ratio             : 4/3\nFrame rate                       : 25.000 fps\nStandard                         : PAL\nColorimetry                      : 4:2:0\nScan type                        : Interlaced\nScan order                       : Top Field First\nBits/(Pixel*Frame)               : 0.597\nStream size                      : 944 MiB (92%)\n\nAudio\nID                               : 128 (0x80)\nFormat                           : AC-3\nFormat/Info                      : Audio Coding 3\nDuration                         : 21mn 19s\nBit rate mode                    : Constant\nBit rate                         : 256 Kbps\nChannel(s)                       : 2 channels\nChannel positions                : L R\nSampling rate                    : 48.0 KHz\nStream size                      : 39.1 MiB (4%)\n\n \n   \n*****************************************\n\nBrought to you by \nPioen\n\n2Lions Team\n\nmeer zien??\nKom dan eens kijken op ons forum \n\n\n\n\n2Lions the site to be for all your Dutch MOVIES and more\n\n******************************************\n\n\nDON T HIT AND RUN Niet gelijk afhaken als de FILM binnen is blijf seeden. \n\nDon`t quit after you finished the download, but keep seeding\n\n\nThere are fake torrents from uploaders who use our team name.\nThose are not ours, or members from our team.\nWe 2Lions-Team are not responsible for the fake posts on our name\n\nWij 2Lions-Team zijn niet verantwoordelijk voor die zieke FAKE posten die op onze naam worden gedaan   \n\n \n \n \n","torrent":{"xt":"urn:btih:fd50d2a43811c7d622b5efbe0c34f501a013f9a1","amp;dn":"Rock+Legends+The+Best+from+The+Ed+Sullivan+Show+%28vol+2%29+2Lions-","amp;tr":["udp%3A%2F%2Ftracker.openbittorrent.com%3A80","udp%3A%2F%2Fopen.demonii.com%3A1337","udp%3A%2F%2Ftracker.coppersurfer.tk%3A6969","udp%3A%2F%2Fexodus.desync.com%3A6969"],"infoHash":"fd50d2a43811c7d622b5efbe0c34f501a013f9a1","infoHashBuffer":{"type":"Buffer","data":[253,80,210,164,56,17,199,214,34,181,239,190,12,52,245,1,160,19,249,161]},"announce":[],"urlList":[]}}